<svg width="18" height="18" viewBox="0 0 18 18" fill="none" xmlns="http://www.w3.org/2000/svg">
<path d="M9.813 1.4129C9.813 1.19731 9.72735 0.990541 9.57491 0.838092C9.42246 0.685643 9.21569 0.599998 9.0001 0.599998C8.7845 0.599998 8.57774 0.685643 8.42529 0.838092C8.27284 0.990541 8.18719 1.19731 8.18719 1.4129V8.18709H1.413C1.19741 8.18709 0.99064 8.27274 0.838191 8.42519C0.685742 8.57764 0.600098 8.7844 0.600098 9C0.600098 9.21559 0.685742 9.42236 0.838191 9.57481C0.99064 9.72726 1.19741 9.8129 1.413 9.8129H8.18719V16.5871C8.18719 16.8027 8.27284 17.0095 8.42529 17.1619C8.57774 17.3144 8.7845 17.4 9.0001 17.4C9.21569 17.4 9.42246 17.3144 9.57491 17.1619C9.72735 17.0095 9.813 16.8027 9.813 16.5871V9.8129H16.5872C16.8028 9.8129 17.0096 9.72726 17.162 9.57481C17.3145 9.42236 17.4001 9.21559 17.4001 9C17.4001 8.7844 17.3145 8.57764 17.162 8.42519C17.0096 8.27274 16.8028 8.18709 16.5872 8.18709H9.813V1.4129Z" fill="white" fill-opacity="0.9"/>
</svg>
