<svg width="14" height="11" viewBox="0 0 14 11" fill="none" xmlns="http://www.w3.org/2000/svg">
<path d="M4.36578 8.43028L1.52103 5.58553C1.37958 5.44892 1.19013 5.37332 0.993483 5.37503C0.796835 5.37674 0.608726 5.45561 0.46967 5.59467C0.330614 5.73373 0.251737 5.92184 0.250028 6.11848C0.24832 6.31513 0.323915 6.50458 0.460534 6.64603L3.83553 10.021C3.97618 10.1616 4.16691 10.2406 4.36578 10.2406C4.56466 10.2406 4.75539 10.1616 4.89603 10.021L13.146 1.77103C13.2827 1.62958 13.3582 1.44013 13.3565 1.24348C13.3548 1.04684 13.276 0.858726 13.1369 0.71967C12.9978 0.580614 12.8097 0.501737 12.6131 0.500028C12.4164 0.49832 12.227 0.573916 12.0855 0.710534L4.36578 8.43028Z" fill="white"/>
</svg>
