<svg width="20" height="20" viewBox="0 0 20 20" fill="none" xmlns="http://www.w3.org/2000/svg">
<rect width="20" height="20" rx="10" fill="#2390DF"/>
<rect x="0.5" y="0.5" width="19" height="19" rx="9.5" stroke="white" stroke-opacity="0.18"/>
<path d="M7.65847 13.0491L5.12981 10.5205C5.00407 10.399 4.83567 10.3318 4.66087 10.3334C4.48608 10.3349 4.31887 10.405 4.19526 10.5286C4.07166 10.6522 4.00154 10.8194 4.00003 10.9942C3.99851 11.169 4.0657 11.3374 4.18714 11.4631L7.18714 14.4631C7.31216 14.5881 7.4817 14.6583 7.65847 14.6583C7.83525 14.6583 8.00479 14.5881 8.12981 14.4631L15.4631 7.12981C15.5846 7.00407 15.6518 6.83567 15.6503 6.66087C15.6487 6.48608 15.5786 6.31887 15.455 6.19526C15.3314 6.07166 15.1642 6.00154 14.9894 6.00003C14.8146 5.99851 14.6462 6.0657 14.5205 6.18714L7.65847 13.0491Z" fill="white"/>
</svg>
